Coordinates
version=1
nRows=9
nColumns=60
inDegrees=yes

Units are S.I. units (second, meters, Newtons, ...)
If the header above contains a line with 'inDegrees', this indicates whether rotational values are in degrees (yes) or radians (no).

endheader
time	pelvis_tilt	pelvis_list	pelvis_rotation	pelvis_tx	pelvis_ty	pelvis_tz	hip_flexion_r	hip_adduction_r	hip_rotation_r	knee_angle_r_beta	knee_angle_r	ankle_angle_r	subtalar_angle_r	mtp_angle_r	hip_flexion_l	hip_adduction_l	hip_rotation_l	knee_angle_l_beta	knee_angle_l	ankle_angle_l	subtalar_angle_l	mtp_angle_l	L5_S1_Flex_Ext	L5_S1_Lat_Bending	L5_S1_axial_rotation	L4_L5_Flex_Ext	L4_L5_Lat_Bending	L4_L5_axial_rotation	L3_L4_Flex_Ext	L3_L4_Lat_Bending	L3_L4_axial_rotation	L2_L3_Flex_Ext	L2_L3_Lat_Bending	L2_L3_axial_rotation	L1_L2_Flex_Ext	L1_L2_Lat_Bending	L1_L2_axial_rotation	L1_T12_Flex_Ext	L1_T12_Lat_Bending	L1_T12_axial_rotation	Abs_r3	Abs_r2	Abs_r1	Abs_t1	Abs_t2	arm_flex_r	arm_add_r	arm_rot_r	elbow_flex_r	pro_sup_r	wrist_flex_r	wrist_dev_r	arm_flex_l	arm_add_l	arm_rot_l	elbow_flex_l	pro_sup_l	wrist_flex_l	wrist_dev_l
     93.51000000	      0.20095226	     -5.53285455	     91.40587524	      0.39588039	      0.89292924	      0.41916262	     31.37751798	     -5.52375113	      3.46089944	      0.43685873	    -25.03016133	      2.63303418	      0.00000000	      0.00000000	     31.77494816	     -4.84443230	      0.24322127	      0.42626810	    -24.42336297	      3.29842534	      0.00000000	      0.00000000	    -10.34971843	      0.22310106	      0.35944102	    -19.22046209	      0.29672441	      0.38190608	    -17.00355241	      0.54244792	      0.38190608	    -11.82869319	      0.54244792	      0.31451089	     -9.61074853	      0.45494768	      0.29204583	     -5.91382911	      0.34558354	      0.26958076	    -73.92700376	      2.52376383	      1.99910311	      0.00000000	      0.00000000	     69.21471128	    -24.15892597	     24.47280027	     44.89562821	     68.18768769	     12.77475150	     -1.24088681	     71.36905181	    -18.57315982	     37.10286803	     43.69192524	     62.37156046	      5.42132658	     -6.61723103
     93.52000000	      0.10865407	     -6.01044335	     91.43586995	      0.39578292	      0.89124023	      0.42048727	     32.22004968	     -5.62689803	      3.56525756	      0.44422759	    -25.45236597	      2.70208354	      0.00000000	      0.00000000	     32.53949617	     -4.71550659	      0.27994961	      0.43104819	    -24.69724185	      3.25417986	      0.00000000	      0.00000000	    -10.37839259	      0.21322120	      0.32807081	    -19.27371288	      0.28358419	      0.34857524	    -17.05066119	      0.51842602	      0.34857524	    -11.86146489	      0.51842602	      0.28706196	     -9.63737536	      0.43480067	      0.26655754	     -5.93021353	      0.33027963	      0.24605311	    -74.13182043	      2.41200083	      1.82463144	      0.00000000	      0.00000000	     70.36839117	    -23.76090094	     24.25947185	     43.97410924	     70.21083147	     13.64081628	     -3.12743361	     72.36560684	    -18.54490395	     37.49046551	     43.15898100	     61.44225675	      5.98856057	     -8.23311538
     93.53000000	      0.09195137	     -6.37943556	     91.44583351	      0.39573073	      0.88999422	      0.42149640	     32.72602579	     -5.65708570	      3.57767243	      0.44446058	    -25.46571563	      2.74476388	      0.00000000	      0.00000000	     33.03059116	     -4.67496711	      0.29485874	      0.43094958	    -24.69159208	      3.27891495	      0.00000000	      0.00000000	    -10.44240632	      0.21084748	      0.32689954	    -19.39259278	      0.28042714	      0.34733076	    -17.15582935	      0.51265456	      0.34733076	    -11.93462619	      0.51265456	      0.28603709	     -9.69681851	      0.42996018	      0.26560587	     -5.96679097	      0.32660274	      0.24517465	    -74.58906412	      2.38514883	      1.81811716	      0.00000000	      0.00000000	     71.33375469	    -23.73937817	     24.08079536	     44.08388092	     70.20486626	     13.63589764	     -3.15195545	     73.26513861	    -18.47798686	     37.31267858	     43.19568766	     61.43521552	      5.98184662	     -8.25686265
     93.54000000	     -0.04411309	     -6.99475831	     91.43848365	      0.39569170	      0.88800091	      0.42281680	     33.92105940	     -5.78524920	      3.69279713	      0.45909059	    -26.30395349	      2.79635982	      0.00000000	      0.00000000	     34.08019834	     -4.51289901	      0.34222310	      0.44111630	    -25.27410251	      3.08986986	      0.00000000	      0.00000000	    -10.43672901	      0.19309854	      0.30004174	    -19.38204944	      0.25682106	      0.31879435	    -17.14650209	      0.46949980	      0.31879435	    -11.92813758	      0.46949980	      0.26253652	     -9.69154656	      0.39376655	      0.24378392	     -5.96354696	      0.29910964	      0.22503131	    -74.54851164	      2.18436934	      1.66874216	      0.00000000	      0.00000000	     72.43168823	    -23.41451087	     24.17940006	     43.19378505	     70.37585186	     13.74855186	     -3.12095465	     74.26927442	    -18.20909548	     37.50958287	     42.32022963	     61.42965837	      5.99596054	     -8.22935479
     93.55000000	     -0.05810558	     -7.35721740	     91.43317316	      0.39566268	      0.88687029	      0.42360476	     34.39461118	     -5.80650123	      3.71869826	      0.45917849	    -26.30898927	      2.83628014	      0.00000000	      0.00000000	     34.53690667	     -4.47722847	      0.37082375	      0.44096827	    -25.26562072	      3.11070945	      0.00000000	      0.00000000	    -10.49636321	      0.18975076	      0.29815809	    -19.49279611	      0.25236852	      0.31679297	    -17.24447511	      0.46136001	      0.31679297	    -11.99629351	      0.46136001	      0.26088833	     -9.74692287	      0.38693976	      0.24225345	     -5.99762194	      0.29392393	      0.22361857	    -74.97447274	      2.14649860	      1.65826586	      0.00000000	      0.00000000	     73.34650160	    -23.40310249	     24.02269706	     43.29514925	     70.38490594	     13.74927447	     -3.15243152	     75.12556894	    -18.16759978	     37.35204392	     42.35833416	     61.42417990	      5.99499110	     -8.25584056
     93.56000000	     -0.20157885	     -7.94250525	     91.40148039	      0.39564812	      0.88511811	      0.42467404	     35.47868627	     -5.91936236	      3.90347073	      0.47163696	    -27.02280755	      2.86600218	      0.00000000	      0.00000000	     35.46711344	     -4.31686680	      0.40240223	      0.44900105	    -25.72586541	      2.93862598	      0.00000000	      0.00000000	    -10.49544602	      0.16964542	      0.26701759	    -19.49109281	      0.22562841	      0.28370619	    -17.24296827	      0.41247588	      0.28370619	    -11.99524526	      0.41247588	      0.23364039	     -9.74607118	      0.34594095	      0.21695179	     -5.99709786	      0.26278076	      0.20026319	    -74.96792141	      1.91906295	      1.48507175	      0.00000000	      0.00000000	     74.41105791	    -23.10660532	     24.22829335	     42.49561369	     70.70778230	     13.92199598	     -3.24595651	     76.08612412	    -18.00934202	     37.63670269	     41.65545259	     61.41767023	      6.08480314	     -8.28139901
     93.57000000	     -0.22167523	     -8.29727763	     91.40232061	      0.39563539	      0.88408617	      0.42522473	     35.92872384	     -5.94133210	      3.94012300	      0.47189579	    -27.03763738	      2.90217804	      0.00000000	      0.00000000	     35.89458283	     -4.28079970	      0.42872321	      0.44884855	    -25.71712752	      2.96543025	      0.00000000	      0.00000000	    -10.55144583	      0.16729063	      0.26258654	    -19.59509005	      0.22249654	      0.27899819	    -17.33497035	      0.40675044	      0.27899819	    -12.05924744	      0.40675044	      0.22976322	     -9.79807259	      0.34113905	      0.21335156	     -6.02909615	      0.25913319	      0.19693990	    -75.36792240	      1.89242508	      1.46042754	      0.00000000	      0.00000000	     75.27614672	    -23.10171747	     24.08688240	     42.59326481	     70.72558783	     13.92682351	     -3.28642359	     76.90090852	    -17.98931607	     37.49188192	     41.69434034	     61.40952597	      6.08910485	     -8.31104352
     93.58000000	     -0.34281234	     -8.69618618	     91.40711668	      0.39552071	      0.88277103	      0.42594285	     36.72076435	     -6.03834898	      4.17806261	      0.48237264	    -27.63791617	      2.86010783	      0.00000000	      0.00000000	     36.55168462	     -4.10562882	      0.56813757	      0.45550647	    -26.09859825	      2.84867265	      0.00000000	      0.00000000	    -10.58515645	      0.15590481	      0.23274700	    -19.65769405	      0.20735340	      0.24729369	    -17.39035354	      0.37906696	      0.24729369	    -12.09777531	      0.37906696	      0.20365363	     -9.82937628	      0.31792110	      0.18910694	     -6.04835840	      0.24149656	      0.17456025	    -75.60871403	      1.76362644	      1.29446901	      0.00000000	      0.00000000	     76.21696443	    -22.93812707	     24.16146776	     42.26159028	     70.87798642	     13.99117857	     -3.36409805	     77.78444984	    -17.91636148	     37.56217855	     41.38119451	     61.38582751	      6.14253718	     -8.34384246
     93.59000000	     -0.45000852	     -9.24101718	     91.41761849	      0.39549033	      0.88129760	      0.42649607	     37.56977065	     -6.15376573	      4.21535888	      0.48961698	    -28.05298633	      2.97660456	      0.00000000	      0.00000000	     37.27733995	     -3.98390734	      0.48529295	      0.45876998	    -26.28558378	      2.84615192	      0.00000000	      0.00000000	    -10.58878533	      0.14445515	      0.20188073	    -19.66443324	      0.19212535	      0.21449828	    -17.39631542	      0.35122825	      0.21449828	    -12.10192276	      0.35122825	      0.17664564	     -9.83274606	      0.29457294	      0.16402810	     -6.05043194	      0.22376103	      0.15141055	    -75.63463474	      1.63410553	      1.12280008	      0.00000000	      0.00000000	     77.09989222	    -22.72165818	     24.32825257	     41.78677866	     71.08128133	     14.07544316	     -3.49691984	     78.58982740	    -17.90969902	     37.78073925	     41.02156785	     61.34085901	      6.24115892	     -8.40316604
